<?xml version="1.0" encoding="UTF-8"?>
<svg viewBox="0 0 1920 1129.6" xmlns="http://www.w3.org/2000/svg" xmlns:xlink="http://www.w3.org/1999/xlink">
<defs>
<clipPath id="af">
<rect width="1146.8" height="771" fill="none" data-name="Rectangle 11584"/>
</clipPath>
<linearGradient id="c" y1=".5" y2=".5">
<stop stop-color="#f7971e" offset="0"/>
<stop stop-color="#ffd200" offset="1"/>
</linearGradient>
<linearGradient id="b" y1=".5" y2=".5">
<stop stop-color="#acc6f9" offset="0"/>
<stop stop-color="#6f96e3" offset="1"/>
</linearGradient>
<clipPath id="ae">
<path transform="translate(-185.54 -284.75)" d="m266.03 288.18-66.55 19.149s-21.484 3.867-11.112 22.192c0 0 38.589 52.508 43.824 67.163 0 0 2.727 6.419 7.813-1.259 0 0 10.3-8.4-26.57-69.646 0 0 3.765-3.451 19.415-2.291 0 0 18.515-0.073 30.255-3.7l19.575-19.231-2.658-15.8z" fill="none" data-name="Path 20221"/>
</clipPath>
<clipPath id="ad">
<path transform="translate(-187.8 -287.66)" d="m277.25 289.04s-21.043 23.426-45.377 54.5c0 0-12.5 14-18.728 31.677 0 0-18.112 47.749-25.34 71.653 0 0 10.463 5.333 16.928-3.38 0 0 17.959-28.232 33.8-70.247a74.727 74.727 0 0 1 13.6-15.973l32.531-29.992s15.46-15.22 20.275-26.6c0 3e-3 -14.439-18.069-27.689-11.638z" fill="none" data-name="Path 20224"/>
</clipPath>
<linearGradient id="a" y1=".5" y2=".5">
<stop stop-color="#3475f6" offset="0"/>
<stop stop-color="#1b5ee0" offset="1"/>
</linearGradient>
<linearGradient id="d" y1=".5" y2=".5">
<stop stop-color="#ef9881" offset="0"/>
<stop stop-color="#ff5e36" offset="1"/>
</linearGradient>
<linearGradient id="e" y1=".5" y2=".5" xlink:href="#d"/>
<linearGradient id="x" x1="144.15" x2="145.21" y1="118.47" y2="118.47" xlink:href="#a"/>
<linearGradient id="w" x1="127.53" x2="128.47" y1="121.88" y2="121.88" xlink:href="#c"/>
<linearGradient id="v" y1=".5" y2=".5">
<stop stop-color="#955f83" offset="0"/>
<stop stop-color="#1b5ee0" offset="1"/>
</linearGradient>
<linearGradient id="u" x1="24.076" x2="25.063" y1="-34.468" y2="-34.468" xlink:href="#a"/>
<linearGradient id="t" x1="102.96" x2="103.42" y1="-66.927" y2="-66.927" xlink:href="#b"/>
<clipPath id="ac">
<path transform="translate(-284.07 -153.96)" d="m293.28 184.84-9.211-12.353 5.873-18.527 7.572 7.884z" fill="none" data-name="Path 20249"/>
</clipPath>
<linearGradient id="s" x1="141.96" x2="143" y1="-3.713" y2="-3.713" xlink:href="#a"/>
<clipPath id="ab">
<path transform="translate(-250.59 -181.8)" d="m278.5 195.43-8.491-12.859-19.42-0.769 4.844 9.8z" fill="none" data-name="Path 20252"/>
</clipPath>
<linearGradient id="r" x1="70.19" x2="71.17" y1="-11.591" y2="-11.591" xlink:href="#a"/>
<linearGradient id="q" x1="123.14" x2="124.16" y1="-26.431" y2="-26.431" xlink:href="#a"/>
<clipPath id="aa">
<path transform="translate(-269.06 -170.46)" d="m285.09 215.36c13.7 17.123 29.223 15 29.223 15s7.33-13.891-4.122-32.593c-10.112-16.514-28.232-27.309-28.232-27.309l-6.5 4.563-6.4 4.5s3.937 20.719 16.031 35.839z" fill="none" data-name="Path 20255"/>
</clipPath>
<linearGradient id="p" x1=".5" x2=".5" y1="1" xlink:href="#c"/>
<linearGradient id="o" x1="52.509" x2="53.656" y1="-11.263" y2="-11.263" xlink:href="#a"/>
<clipPath id="z">
<path transform="translate(-288.09 -196.14)" d="m289.48 208.23a7.678 7.678 0 1 1 10.7 1.871 7.678 7.678 0 0 1-10.7-1.871z" fill="none" data-name="Path 20258"/>
</clipPath>
<clipPath id="y">
<path transform="translate(-280.94 -184.25)" d="m281.64 190.27a3.825 3.825 0 1 1 5.329 0.933 3.823 3.823 0 0 1-5.329-0.933z" fill="none" data-name="Path 20262"/>
</clipPath>
<linearGradient id="n" x1="1423" x2="1425.9" y1="-25.189" y2="-25.189" xlink:href="#b"/>
<linearGradient id="m" x1="1426.4" x2="1429.3" y1="-25.81" y2="-25.81" xlink:href="#b"/>
<linearGradient id="l" x1="1429.8" x2="1432.7" y1="-26.431" y2="-26.431" xlink:href="#b"/>
<linearGradient id="k" x1="1433.2" x2="1436" y1="-27.052" y2="-27.052" xlink:href="#b"/>
<linearGradient id="j" x1="1436.7" x2="1439.5" y1="-27.673" y2="-27.673" xlink:href="#b"/>
<linearGradient id="i" x1="38.793" x2="40.293" y1="60.777" y2="60.777" xlink:href="#a"/>
<linearGradient id="h" x1="47.023" x2="48.852" y1="65.989" y2="65.989" xlink:href="#c"/>
<linearGradient id="g" x1="25.447" x2="26.666" y1="-60.408" y2="-60.408" xlink:href="#a"/>
<linearGradient id="f" x1="29.365" x2="30.771" y1="-68.888" y2="-68.888" xlink:href="#c"/>
</defs>
<g transform="translate(0)">
<g transform="translate(4.813 -45.578)">
<g transform="translate(-4.813 45.578)" data-name="Group 114875">
<g clip-path="url(#af)" data-name="Group 114874">
<path transform="translate(.848 -73.147)" d="m795.8 49.827s35.171 103.22-38.622 177.71c-29.7 29.978-59.563 43.149-174.94 52.228-53.585 4.216-126.17 28.314-173.08 127.53 0 0-27.107 54.212-19.241 165.9a148.48 148.48 0 0 1-5.485 52.967c-9.691 32.435-33.8 74.589-93.759 87.081 0 0-72.818 11.066-173.02-43.592 0 0-73.181-32.8-126.78-29.151v-624.92z" fill="#f3e9ea" data-name="Path 20214"/>
</g>
</g>
<g transform="translate(40.411 158.16)" data-name="Group 114920">
<g transform="translate(193.33 176.31)" data-name="Group 114880">
<path transform="translate(-176.29 -72.526)" d="M191.959,378.319a32.287,32.287,0,0,1-9.375,4.368,19.239,19.239,0,0,0-3.928,1.073,3.844,3.844,0,0,0-2.366,3.076,3.532,3.532,0,0,0,1.827,3,8.328,8.328,0,0,0,3.518.975,48.116,48.116,0,0,0,11.718-.6c3.554-.514,7.187-1.169,10.269-3.013a29.558,29.558,0,0,0,3.944-3.005,14.023,14.023,0,0,0,3.784-4.264,13.312,13.312,0,0,0,1.023-4.149q.386-2.962.647-5.94a.789.789,0,0,0-.088-.557.8.8,0,0,0-.6-.23l-3.529-.319a6.428,6.428,0,0,0-2.5.1c-1.253.4-2.1,1.47-3.165,2.171-1.015.666-2.073,1.157-3.071,1.875Q196.108,375.737,191.959,378.319Z" fill="url(#c)" data-name="Path 20216"/>
<path transform="translate(-146.75 -101.03)" d="M212.3,362.719a17.741,17.741,0,0,1-1.723,6.108c-.846,1.522-2.149,2.94-2.147,4.679a.694.694,0,0,0,.115.449c.18.219.52.177.794.106a13.792,13.792,0,0,0,8.133-5.938,26.606,26.606,0,0,0,1.871-3.806q1.822-4.283,3.571-8.6a58.057,58.057,0,0,0,2.242-6.254c.848-3.071,1.079-6.734-1.084-9.072a11.08,11.08,0,0,0-3.439-2.236,2.922,2.922,0,0,0-2.186-.418,2.616,2.616,0,0,0-1.128.973,18.511,18.511,0,0,0-3.769,10.568A98.956,98.956,0,0,1,212.3,362.719Z" fill="url(#c)" data-name="Path 20217"/>
<path transform="translate(-167.79 -149.65)" d="m266.03 288.18-66.55 19.149s-21.484 3.867-11.112 22.192c0 0 38.589 52.508 43.824 67.163 0 0 2.727 6.419 7.813-1.259 0 0 10.3-8.4-26.57-69.646 0 0 3.765-3.451 19.415-2.291 0 0 18.515-0.073 30.255-3.7l19.575-19.231-2.658-15.8z" fill="url(#b)" data-name="Path 20218"/>
<g transform="translate(17.749 135.1)" data-name="Group 114877">
<g clip-path="url(#ae)" fill="#5c87c4" data-name="Group 114876">
<path transform="translate(-150.83 -284.38)" d="m223.29 290.15a9.7 9.7 0 0 1 3.865 1.176c1.909 1.184 2.641 3.564 3.138 5.755s1 4.569 2.692 6.045c3.238 2.817 8.6 0.639 12.365 2.7a9.6 9.6 0 0 1 3.848 4.784 61.037 61.037 0 0 0 2.433 5.755 17.456 17.456 0 0 0 8.477 7.055l12.906-16.541-8.686-13.812-27.2-6.632-11.994-1.282z" data-name="Path 20219"/>
<path transform="translate(-171.69 -253.6)" d="m214.29 318.96a1.681 1.681 0 0 0-0.846-0.315 1.637 1.637 0 0 0-0.961 0.426 16.8 16.8 0 0 0-2.85 2.95 54.28 54.28 0 0 0-8.338 14.652c-0.553 1.468-1.038 3.134-0.39 4.562a6.373 6.373 0 0 0 2.255 2.322 3.566 3.566 0 0 0 1.453 0.743c1.372 0.221 2.43-1.134 3.151-2.322q4.868-8.014 9.736-16.032a5.158 5.158 0 0 0 0.835-1.921c0.279-2.071-2.525-4.131-4.045-5.065z" opacity=".5" data-name="Path 20220"/>
</g>
</g>
<path transform="translate(-165.7 -146.97)" d="m277.25 289.04s-21.043 23.426-45.377 54.5c0 0-12.5 14-18.728 31.677 0 0-18.112 47.749-25.34 71.653 0 0 10.463 5.333 16.928-3.38 0 0 17.959-28.232 33.8-70.247a74.727 74.727 0 0 1 13.6-15.973l32.531-29.992s15.46-15.22 20.275-26.6c0 3e-3 -14.439-18.069-27.689-11.638z" fill="url(#b)" data-name="Path 20222"/>
<g transform="translate(22.102 140.68)" data-name="Group 114879">
<g clip-path="url(#ad)" data-name="Group 114878">
<path transform="translate(-155.22 -289.97)" d="m223.26 290.14a9.71 9.71 0 0 1 3.867 1.176c1.91 1.184 2.641 3.564 3.138 5.755s1 4.571 2.692 6.045c3.238 2.817 8.6 0.639 12.365 2.7a9.6 9.6 0 0 1 3.848 4.784 61.046 61.046 0 0 0 2.433 5.755 17.456 17.456 0 0 0 8.477 7.055l12.906-16.541-8.682-13.812-27.2-6.632-12-1.282z" fill="#729bdd" data-name="Path 20223"/>
</g>
</g>
<path transform="translate(-132.3 -214.35)" d="M230.589,242.966s-11.643-12.317-3.629-23.24a6.539,6.539,0,0,1,3.855-2.508,5.325,5.325,0,0,1,3.907.624,3.812,3.812,0,0,0,3.955.071,26.8,26.8,0,0,1,6.922-3.024,15.066,15.066,0,0,1,12.944,2.393,19.6,19.6,0,0,1,8,15.08,43.65,43.65,0,0,1-1.255,6.456,23.015,23.015,0,0,0-.988,8.39,18.035,18.035,0,0,0,1.528,6s1.906,4.057-.612,5.715c0,0-3.5,1.829-6.387-2.059Z" fill="#01033b" data-name="Path 20225"/>
<path transform="translate(-133.69 -190.34)" d="m238.5 243.38s30.821-10.2 45.609 7.625c0 0 5.356 7.661 4.437 22.657 0 0-5.036 76.99-16.462 76.91 0 0-4.368 0.219-9.327-9 0 0-1.455-5.646-12.574-4.32 0 0-7.9 1.213-12.445-3.389a9.995 9.995 0 0 0-9.73-3.1s-10.263 1.875-2.416-7.348c0 0 6.218-2.535 6.458-17.6l-7.212-7.4a142.3 142.3 0 0 1 1.771-37.774s1.671-15.022 11.891-17.261z" fill="url(#a)" data-name="Path 20226"/>
<path transform="translate(-129.28 -205.76)" d="m227.69 224.72s-1.72 17.921 3.633 26.86a5.957 5.957 0 0 0 4.391 2.85 11.575 11.575 0 0 0 8.323-2.111 16.458 16.458 0 0 0-1.489 10.59s1.378 4.335 5.389 1.056l8.206-6.725s1.708-2.858 0.94-8.788c0 0-1.05-5.494-1.558-7.3 0 0 7.98 0.854 6.669-5.487 0 0-1.079-6.314-7.753-1.881 0 0-3.779 2.52-2.643-2.623 0 0 2.332-10.862-4.932-6.375 0-3e-3 -8.429 5.528-19.176-0.066z" fill="url(#d)" data-name="Path 20227"/>
<path transform="translate(-130.18 -174.45)" d="m285.04 257.77s-6.239 47.037-24.645 56.41c0 0-13.67 4.581-33.943-11.169l17-2.572s8.335-0.445 12.472-4.614 13.581-21.146 13.581-21.146z" fill="#195dbf" data-name="Path 20228"/>
<path transform="translate(-130.67 -180.76)" d="m225.92 286.08s7.028-4.851 9.189-35.177c0 0 0.165 22.8-3.31 41.412z" fill="#195dbf" data-name="Path 20229"/>
<path transform="translate(-141.79 -162.42)" d="m213.85 270.86s-1.169 13.224 13.215 10.559l-2.293-9.39z" fill="url(#e)" data-name="Path 20230"/>
<path transform="translate(-138.97 -182.88)" d="m292.9 252.79s-3.863-7.081-10.315-2.844c0 0-3.048 2.458-6.458 14.3 0 0-4.234 20.233-13.455 36.4a6.07 6.07 0 0 1-5.577 3.08c-7.676-0.39-25.931-2.19-40.2-10.471 0 0 4.871 15.923 34.312 24.728a20.955 20.955 0 0 0 20.845-4.963 53.761 53.761 0 0 0 11.76-17.132s15.058-31.307 9.088-43.098z" fill="url(#c)" data-name="Path 20231"/>
<path transform="translate(-134.16 -167.15)" d="m222.12 265.71s19.149 10.789 26.708 19.114a1.052 1.052 0 0 1-0.743 1.752 66.437 66.437 0 0 1-25.25-3.99z" fill="url(#b)" data-name="Path 20232"/>
<path transform="translate(-158.11 -189.34)" d="m196.1 243.66 7.968 39.359a9.378 9.378 0 0 0 4.458 6.237c5.675 3.324 18.086 9.686 38.263 15.52a1.672 1.672 0 0 0 2.138-1.551c0.129-5.4 0.2-19.959-2.345-31.525a11.33 11.33 0 0 0-4.381-6.682c-5.347-3.93-17.93-11.989-43.686-23.3a1.747 1.747 0 0 0-2.415 1.942z" fill="#0b1d74" data-name="Path 20233"/>
<path transform="translate(-145.47 -175.03)" d="m214.36 260.29c0.789 2.124 0.514 4.186-0.614 4.606s-2.683-0.963-3.472-3.086-0.516-4.187 0.612-4.606 2.683 0.962 3.474 3.086z" fill="#fff" data-name="Path 20234"/>
<path transform="translate(-117.39 -177.88)" d="m241.28 254.03a42.141 42.141 0 0 0 9.828 1.8s-0.378 10.513-5.656 11.014c0-2e-3 -7.675 0.99-4.172-12.814z" fill="#fff" data-name="Path 20235"/>
</g>
<g transform="translate(180.18 20.924)" data-name="Group 114882">
<path transform="translate(-111.13 -112.66)" d="m132.98 133.4 5.308-15.553-24.011 10.037z" fill="url(#x)" data-name="Path 20238"/>
<path transform="translate(-112.64 -115.14)" d="m136.5 115.14 3.3 5.189-24.012 10.037-3.154-4.96z" fill="url(#w)" data-name="Path 20239"/>
</g>
<g transform="translate(-5.99 313.99)" data-name="Group 114886">
<rect transform="translate(14.484)" width="134.36" height="88.629" rx="4.604" fill="url(#v)" opacity=".1" data-name="Rectangle 11585"/>
<rect transform="translate(0 6.679)" width="134.36" height="88.63" rx="4.604" fill="#cfb7c4" data-name="Rectangle 11586"/>
</g>
<g transform="translate(147.22 506.07)" data-name="Group 114887">
<path transform="translate(-95.467 -367.94)" d="m95.467 367.94 11.1 39.262 5.918-19.043z" fill="url(#u)" data-name="Path 20242"/>
<path transform="translate(-95.467 -367.94)" d="m95.467 367.94 36.79 17.64-19.774 2.579z" fill="url(#t)" data-name="Path 20243"/>
</g>
<g transform="translate(436.92 57.194)" data-name="Group 114902">
<path transform="translate(-250.65 -143.42)" d="m269.63 173.56 7.385-5.858s2.854-6.424-3.13-12.335c-6.551-6.469-15.1-8.334-22.174-11.943 2.168 7.5 1.856 16.415 6.665 24.265 4.393 7.172 11.254 5.871 11.254 5.871z" fill="url(#d)" data-name="Path 20245"/>
<path transform="translate(-251.08 -143.98)" d="m270.62 174.97 3.785-3 3.675-2.915a40.668 40.668 0 0 0-17.477-14.3 40.11 40.11 0 0 0 10.017 20.215z" fill="#fff" opacity=".5" data-name="Path 20246"/>
<g transform="translate(0 10.027)" data-name="Group 114892">
<g transform="translate(31.844)" data-name="Group 114889">
<g clip-path="url(#ac)" data-name="Group 114888">
<path transform="translate(-284.07 -153.96)" d="m293.28 184.84-9.211-12.353 5.873-18.527 7.572 7.884z" fill="url(#s)" data-name="Path 20247"/>
<path transform="translate(-284.35 -154.17)" d="m296.86 158.11-7.121 23.721 3.993 5.688 4.5-9.143 1.992-17.9z" opacity=".15" data-name="Path 20248"/>
</g>
</g>
<g transform="translate(0 26.481)" data-name="Group 114891">
<g clip-path="url(#ab)" data-name="Group 114890">
<path transform="translate(-250.59 -181.8)" d="m278.5 195.43-8.491-12.859-19.42-0.769 4.844 9.8z" fill="url(#r)" data-name="Path 20250"/>
<path transform="translate(-250.67 -182.19)" d="m252.12 189.77 24.73 1.359 3.993 5.688-10.127 1.126-17.509-4.2z" opacity=".15" data-name="Path 20251"/>
</g>
</g>
</g>
<rect transform="translate(30.324 25.561) rotate(144.93)" width="15.763" height="4.997" fill="url(#q)" data-name="Rectangle 11589"/>
<g transform="translate(17.565 25.715)" data-name="Group 114894">
<g clip-path="url(#aa)" data-name="Group 114893">
<path transform="translate(-269.05 -170.45)" d="m285.03 215.26c13.7 17.123 29.253 15.044 29.253 15.044s7.285-13.955-4.166-32.657c-10.112-16.514-28.278-27.375-28.278-27.375l-6.5 4.564-6.4 4.5s3.993 20.805 16.091 35.924z" fill="url(#p)" data-name="Path 20253"/>
<rect transform="translate(61.969 50.694) rotate(144.93)" width="35.558" height="20.12" fill="url(#o)" data-name="Rectangle 11590"/>
<rect transform="translate(51.516 35.805) rotate(144.93)" width="35.559" height="1.929" opacity=".1" data-name="Rectangle 11591"/>
<path transform="translate(-269.41 -170.41)" d="m314.12 229.34s5.595-31.909-37.9-56.848l4.188-2.941s45.892 29.887 33.712 59.789z" opacity=".1" data-name="Path 20254"/>
</g>
</g>
<circle transform="translate(30.407 63.276) rotate(-67.853)" cx="9.928" cy="9.928" r="9.928" opacity=".1" data-name="Ellipse 55"/>
<path transform="translate(-252.38 -145.95)" d="m288.79 208.65a8.472 8.472 0 1 1 11.8 2.066 8.47 8.47 0 0 1-11.8-2.066z" opacity=".1" data-name="Path 20256"/>
<g transform="translate(35.668 50.145)" data-name="Group 114897">
<g clip-path="url(#z)" data-name="Group 114896">
<path transform="translate(-288.09 -196.14)" d="m289.48 208.23a7.678 7.678 0 1 1 10.7 1.871 7.678 7.678 0 0 1-10.7-1.871z" fill="#fceeea" data-name="Path 20257"/>
<g transform="translate(3.106 -2.203)" fill="#edd7d1" opacity=".5" data-name="Group 114895">
<rect transform="matrix(.985 .172 -.172 .985 3.23 0)" width="3.087" height="18.731" data-name="Rectangle 11592"/>
<rect transform="translate(7.402 .73) rotate(9.927)" width="1.543" height="18.731" data-name="Rectangle 11593"/>
</g>
</g>
</g>
<path transform="translate(-252.02 -145.36)" d="m280.66 190.86a4.946 4.946 0 1 1 6.891 1.206 4.946 4.946 0 0 1-6.891-1.206z" opacity=".1" data-name="Path 20259"/>
<path transform="translate(-252.05 -145.4)" d="m281.3 190.48a4.221 4.221 0 1 1 5.88 1.028 4.221 4.221 0 0 1-5.88-1.028z" opacity=".1" data-name="Path 20260"/>
<g transform="translate(28.871 38.831)" data-name="Group 114900">
<g clip-path="url(#y)" data-name="Group 114899">
<path transform="translate(-280.94 -184.25)" d="m281.64 190.27a3.825 3.825 0 1 1 5.329 0.933 3.823 3.823 0 0 1-5.329-0.933z" fill="#fceeea" data-name="Path 20261"/>
<g transform="translate(1.436 -1.945)" fill="#edd7d1" opacity=".6" data-name="Group 114898">
<rect transform="translate(1.83) rotate(9.925)" width="1.75" height="10.617" data-name="Rectangle 11594"/>
<rect transform="translate(4.195 .414) rotate(9.925)" width=".875" height="10.617" data-name="Rectangle 11595"/>
</g>
</g>
</g>
<g transform="translate(15.897 22.416)" data-name="Group 114901">
<rect transform="translate(13.082 4.09) rotate(144.93)" width="1.357" height="4.997" fill="url(#n)" data-name="Rectangle 11596"/>
<rect transform="translate(10.807 5.687) rotate(144.93)" width="1.357" height="4.997" fill="url(#m)" data-name="Rectangle 11597"/>
<rect transform="translate(8.532 7.284) rotate(144.92)" width="1.357" height="4.997" fill="url(#l)" data-name="Rectangle 11598"/>
<rect transform="translate(6.257 8.882) rotate(144.93)" width="1.357" height="4.997" fill="url(#k)" data-name="Rectangle 11599"/>
<rect transform="matrix(-.818 .575 -.575 -.818 3.982 10.479)" width="1.357" height="4.997" fill="url(#j)" data-name="Rectangle 11600"/>
</g>
<rect transform="translate(30.324 25.561) rotate(144.93)" width="15.763" height="1.125" opacity=".1" data-name="Rectangle 11601"/>
<path transform="translate(-252.91 -147.51)" d="m311.18 232.3s-7.492-1.021-13-4.552a2.823 2.823 0 0 1 3.451 0.116c2.081 1.336 2.643 2 4.7 2.3 3.823 0.559 4.849 2.136 4.849 2.136z" fill="#fff" opacity=".5" data-name="Path 20263"/>
</g>
<path transform="translate(-1.442 -84.097)" d="m75.356 166.5s-14.767-15.493-5.911-26.286a13.267 13.267 0 0 1 6.961-4.351c5.239-1.353 14.7-1.32 22 12.488 0 0 5.452-24.668 32.381-21.989a19.779 19.779 0 0 1 13.819 7.4c4 5.222 6.661 14.151 1.332 28.988 0 0 21.908-9.037 27.543 4.663a15.121 15.121 0 0 1 0.854 3.124c0.956 5.383 1.844 19.784-15.433 21.885h-102.85s-14.777-0.209-17.972-12.125a15.2 15.2 0 0 1 2.859-13.328c4.617-5.782 14.725-12.207 34.415-0.469z" fill="#fef8f6" data-name="Path 20264"/>
<path transform="translate(13.989 -104.24)" d="m422.58 169.69c-63.9-67.4-218.39-71.114-270.01-61.563-16.671 3.086-33.116 8.012-48.069 16-10.431 5.569-20.5 13.126-25.254 23.955s-2.383 25.43 7.754 31.527c6.229 3.748 42.525 12.175 55.147-0.649 2.934-2.98 0.81-8.513-2.491-11.083a17.2 17.2 0 0 0-11.908-3.122c-95.7 7.922-84.337 174.19-41.727 216.55 18.97 18.861 48.92 25.524 63.7 47.82 15.017 22.647 7.488 55.6-12.868 73.6s-50.233 22.382-76.775 16.552" fill="none" stroke="#707070" stroke-dasharray="3" stroke-miterlimit="10" stroke-width=".5" data-name="Path 20265"/>
<g transform="translate(27.885 158.94)" data-name="Group 114903">
<path transform="translate(-33.282 -186.97)" d="m39.571 187.16-5.31 3.005c-2.364 1.34-0.3 9.467 4.619 18.157s10.82 14.647 13.186 13.307l5.31-3.005z" fill="url(#i)" data-name="Path 20267"/>
<path transform="translate(-30.739 -187.06)" d="m54.833 218.71c-2.366 1.34-8.269-4.619-13.186-13.307s-6.986-16.817-4.619-18.157 8.269 4.619 13.186 13.309 6.986 16.818 4.619 18.155z" fill="url(#h)" data-name="Path 20268"/>
</g>
<g transform="translate(279.45 298.39)" data-name="Group 114904">
<path transform="translate(-164.12 -259.52)" d="m164.64 286.36 4.456 4.166c1.986 1.856 9.123-2.55 15.94-9.843s10.735-14.71 8.751-16.566l-4.458-4.166z" fill="url(#g)" data-name="Path 20269"/>
<path transform="translate(-164.37 -259.72)" d="m189.57 260.15c1.986 1.856-1.931 9.273-8.749 16.566s-13.954 11.7-15.94 9.843 1.931-9.273 8.749-16.566 13.955-11.699 15.94-9.843z" fill="url(#f)" data-name="Path 20270"/>
</g>
<path transform="translate(-18.752 100.86)" d="m128.72 336.35c0 4.942-24.616 8.951-54.982 8.951s-54.984-4.009-54.984-8.951 24.616-8.954 54.984-8.954 54.982 4.01 54.982 8.954z" fill="#ead1cc" opacity=".6" data-name="Path 20296"/>
<path transform="translate(127.21 165.68)" d="m313.37 406.54c0 4.761-30.4 8.621-67.907 8.621s-67.907-3.859-67.907-8.621 30.4-8.621 67.907-8.621 67.907 3.859 67.907 8.621z" fill="#ead1cc" opacity=".4" data-name="Path 20297"/>
</g>
</g>
<path transform="translate(1128 587.12)" d="m442.85 526.64s-15.251-47.757 16.749-82.216c12.883-13.87 25.834-19.962 75.877-24.163 23.241-1.951 54.724-13.1 75.071-59 0 0 11.758-25.082 8.345-76.755a73.062 73.062 0 0 1 2.383-24.507c4.2-15.005 14.659-34.508 40.666-40.287 0 0 31.584-5.12 75.047 20.167 0 0 31.74 15.173 54.987 13.488v289.12z" fill="#f3e9ea" data-name="Path 20298"/>
</g>
</svg>
